<svg id="vector" xmlns="http://www.w3.org/2000/svg" width="512" height="512" viewBox="0 0 512 512"><path fill="#00acc1" d="m448.052,427.345c-8.943,-5.691 -17.312,-14.785 -25.053,-27.174v-328.171c0,-8.284 -6.716,-15 -15,-15h-35.379l2.234,-15.915c1.267,-9.028 -5.754,-17.085 -14.855,-17.085h-84c-5.889,-14.082 -19.808,-24 -36,-24s-30.111,9.918 -36,24h-84c-9.117,0 -16.119,8.073 -14.854,17.085l2.234,15.915h-35.38c-8.284,0 -15,6.716 -15,15v425c0,8.284 6.716,15 15,15h336c8.284,0 15,-6.716 15,-15v-42h17c6.669,0 12.537,-4.403 14.401,-10.806 1.866,-6.403 -0.721,-13.269 -6.348,-16.849zM142.999,342.426c9.97,35.014 22.217,62.588 36.683,82.574h-36.683zM220.656,425c-61.779,-46.049 -75.469,-235.522 -77.413,-314h193.971c2.01,87.122 15.296,243.298 66.465,314zM392.999,87v236.698c-17.452,-67.342 -25.562,-159.499 -25.995,-226.684l1.406,-10.014zM215.999,54c8.284,0 15,-6.716 15,-15 0,-4.962 4.037,-9 9,-9s9,4.038 9,9c0,8.284 6.716,15 15,15h78.748l-3.79,27h-197.916l-3.79,-27zM392.999,482h-306v-395h24.59l1.41,10.048v342.952c0,8.284 6.716,15 15,15h265z" id="path_0"/><path fill="#00acc1" d="m215.999,199h9v9c0,8.284 6.716,15 15,15s15,-6.716 15,-15v-9h9c8.284,0 15,-6.716 15,-15s-6.716,-15 -15,-15h-9v-9c0,-8.284 -6.716,-15 -15,-15s-15,6.716 -15,15v9h-9c-8.284,0 -15,6.716 -15,15s6.716,15 15,15z" id="path_1"/><path fill="#00acc1" d="m310.999,272c0,-8.284 -6.716,-15 -15,-15h-80c-8.284,0 -15,6.716 -15,15s6.716,15 15,15h80c8.285,0 15,-6.716 15,-15z" id="path_2"/><path fill="#00acc1" d="m311.999,321h-80c-8.284,0 -15,6.716 -15,15s6.716,15 15,15h80c8.284,0 15,-6.716 15,-15s-6.715,-15 -15,-15z" id="path_3"/></svg>